<svg width="278" height="285" viewBox="0 0 278 285" fill="none" xmlns="http://www.w3.org/2000/svg">
<path d="M235.642 237.441C238.419 252.843 241.197 268.296 243.974 283.699C252.812 283.8 261.599 283.951 270.436 284.052C272.658 268.498 274.83 252.995 277.052 237.441H235.642Z" fill="#202124"/>
<path d="M256.347 246.127C267.782 246.127 277.052 242.532 277.052 238.097C277.052 233.662 267.782 230.068 256.347 230.068C244.912 230.068 235.642 233.662 235.642 238.097C235.642 242.532 244.912 246.127 256.347 246.127Z" fill="white" stroke="#202124" stroke-width="0.75" stroke-miterlimit="10"/>
<path d="M252.56 186.183C249.429 190.375 246.853 194.92 244.833 199.768C242.964 204.161 241.399 209.11 242.156 213.908C242.863 218.352 245.691 221.483 248.721 224.563C252.863 228.805 255.691 233.3 255.539 239.41C255.539 240.37 257.054 240.37 257.054 239.41C257.155 235.067 255.943 230.926 253.317 227.442C250.691 223.957 246.802 221.331 244.782 217.342C242.207 212.292 243.772 206.383 245.742 201.384C247.812 196.233 250.54 191.385 253.873 186.94C254.428 186.183 253.115 185.425 252.56 186.183Z" fill="#709AEE"/>
<path d="M255.236 230.169C251.651 219.21 266.498 211.585 262.912 200.374C262.609 199.465 261.145 199.869 261.448 200.778C264.983 211.736 250.085 219.311 253.772 230.573C254.075 231.482 255.539 231.078 255.236 230.169Z" fill="#709AEE"/>
<path d="M245.591 181.941C243.571 184.87 241.601 187.951 241.096 191.536C240.49 195.425 241.955 199.01 243.47 202.495C243.874 203.404 245.136 202.596 244.783 201.737C243.318 198.303 241.854 194.718 242.763 190.88C243.47 187.85 245.187 185.224 246.904 182.699C247.409 181.891 246.096 181.133 245.591 181.941Z" fill="#709AEE"/>
<path d="M258.721 215.17C257.155 211.837 256.347 208.252 256.499 204.565C256.65 201.283 258.216 198.152 257.913 194.869C257.812 193.91 256.297 193.91 256.398 194.869C256.6 197.142 255.741 199.162 255.337 201.333C255.034 202.949 254.882 204.666 254.933 206.333C255.034 209.716 255.943 212.898 257.357 215.928C257.862 216.786 259.175 216.029 258.721 215.17Z" fill="#709AEE"/>
<path d="M257.054 202.444C257.811 199.061 260.437 196.283 261.801 193.152C263.114 190.122 263.871 186.941 264.225 183.658C264.326 182.699 262.811 182.699 262.71 183.658C262.306 187.446 261.296 191.082 259.478 194.465C258.114 196.99 256.195 199.212 255.539 202.091C255.387 203 256.852 203.404 257.054 202.444Z" fill="#709AEE"/>
<path d="M243.823 217.039C243.369 217.089 239.025 217.342 236.096 213.908C233.925 211.332 233.369 207.696 234.682 204.464C235.945 204.919 237.965 205.828 239.783 207.696C243.318 211.282 243.722 215.726 243.823 217.039Z" fill="#709AEE"/>
<path d="M244.379 203.101C243.924 201.939 246.702 199.717 248.318 198.707C250.59 197.243 252.863 196.788 254.327 196.637C254.226 197.293 253.519 201.384 250.135 203.101C247.863 204.212 244.783 204.111 244.379 203.101Z" fill="#709AEE"/>
<path d="M244.025 185.779C243.823 185.173 242.358 180.477 245.136 176.386C246.55 174.316 248.469 173.306 249.428 172.902C250.034 174.215 250.186 175.326 250.236 176.184C250.388 181.84 244.53 185.476 244.025 185.779Z" fill="#709AEE"/>
<path d="M251.802 190.072C251.398 189.213 250.539 187.042 251.095 184.416C252.054 179.77 256.448 177.8 256.902 177.649C256.852 179.063 256.65 181.032 255.892 183.153C254.781 186.486 253.014 188.759 251.802 190.072Z" fill="#709AEE"/>
<path d="M259.427 213.655C260.235 212.191 261.7 209.918 264.275 207.898C267.356 205.424 270.487 204.515 272.204 204.111C271.901 205.272 271.295 206.686 270.335 208.05C266.75 212.948 260.69 213.554 259.427 213.655Z" fill="#709AEE"/>
<path d="M249.782 225.523C249.227 224.765 247.105 221.685 247.509 217.342C247.913 212.797 250.792 210.07 251.449 209.464C251.802 210.777 252.105 212.292 252.206 214.009C252.509 219.16 250.944 223.25 249.782 225.523Z" fill="#709AEE"/>
<path d="M135.399 230.825V199.262C135.399 196.485 133.177 194.263 130.4 194.263H123.784C121.007 194.263 118.785 196.485 118.785 199.262V230.926C107.119 232.542 98.686 237.339 98.686 242.945C98.686 249.914 111.614 255.57 127.521 255.57C143.429 255.57 156.357 249.914 156.357 242.945C156.357 237.188 147.519 232.289 135.399 230.825Z" fill="white" stroke="#202124" stroke-miterlimit="10"/>
<path d="M231.451 226.28L42.328 182.951L50.0545 0.59552L247.156 24.583L231.451 226.28Z" fill="white" stroke="#202124" stroke-width="0.75" stroke-miterlimit="10"/>
<path d="M43.1865 162.195L42.328 182.951L231.451 226.28L233.319 202.343L43.1865 162.195Z" fill="white" stroke="#202124" stroke-width="0.75" stroke-miterlimit="10"/>
<path d="M126.613 199.061C129.206 199.061 131.309 196.958 131.309 194.364C131.309 191.77 129.206 189.668 126.613 189.668C124.019 189.668 121.916 191.77 121.916 194.364C121.916 196.958 124.019 199.061 126.613 199.061Z" fill="white" stroke="#202124" stroke-miterlimit="10"/>
<path d="M76.971 15.897C76.365 16.4525 72.0725 20.1895 65.8105 19.3815C59.397 18.5735 56.165 13.574 55.761 12.9175C56.4175 12.362 60.71 8.72603 66.9215 9.53403C73.2845 10.342 76.5165 15.19 76.971 15.897Z" stroke="#202124" stroke-width="0.75" stroke-miterlimit="10"/>
<path d="M65.861 18.22C67.9528 18.22 69.6485 16.5243 69.6485 14.4325C69.6485 12.3407 67.9528 10.645 65.861 10.645C63.7692 10.645 62.0735 12.3407 62.0735 14.4325C62.0735 16.5243 63.7692 18.22 65.861 18.22Z" fill="#202124" stroke="#202124" stroke-width="0.75" stroke-miterlimit="10"/>
<path d="M2.73599 98.9695C2.48349 100.03 1.06949 145.278 1.06949 145.278L95.151 164.165L100.049 118.008L2.73599 98.9695Z" fill="white" stroke="#202124" stroke-width="0.75" stroke-miterlimit="10"/>
<path d="M1.92798 112.857L98.6355 130.886L99.999 118.059L2.73598 98.9695L1.92798 112.857Z" fill="#202124"/>
<path d="M7.98799 121.796C9.35462 121.796 10.4625 120.688 10.4625 119.321C10.4625 117.954 9.35462 116.847 7.98799 116.847C6.62136 116.847 5.51349 117.954 5.51349 119.321C5.51349 120.688 6.62136 121.796 7.98799 121.796Z" fill="#5492ED"/>
<path d="M7.58398 141.137C8.75538 141.137 9.70498 140.187 9.70498 139.016C9.70498 137.845 8.75538 136.895 7.58398 136.895C6.41259 136.895 5.46298 137.845 5.46298 139.016C5.46298 140.187 6.41259 141.137 7.58398 141.137Z" fill="#5492ED"/>
<path d="M12.735 120.887L85.0005 134.875" stroke="#202124" stroke-miterlimit="10"/>
<path d="M9.70499 127.906L68.8405 140.329" stroke="#202124" stroke-miterlimit="10"/>
<path d="M15.765 139.016L85.0005 153.56" stroke="#202124" stroke-miterlimit="10"/>
<path d="M185.546 37.2585L181.304 68.5685L259.225 84.476L265.487 52.1055L185.546 37.2585Z" fill="white" stroke="#202124" stroke-width="0.75" stroke-miterlimit="10"/>
<path d="M184.637 43.8236C211.149 48.7221 237.662 53.5701 264.174 58.4686C264.629 56.3476 265.033 54.2266 265.487 52.1056C238.823 47.1566 212.21 42.2076 185.546 37.3091" fill="#202124"/>
<path d="M189.586 53.469C190.925 53.469 192.01 52.3838 192.01 51.045C192.01 49.7063 190.925 48.621 189.586 48.621C188.247 48.621 187.162 49.7063 187.162 51.045C187.162 52.3838 188.247 53.469 189.586 53.469Z" fill="#5492ED"/>
<path d="M187.01 63.7205C188.293 63.7205 189.333 62.6805 189.333 61.3975C189.333 60.1146 188.293 59.0745 187.01 59.0745C185.728 59.0745 184.688 60.1146 184.688 61.3975C184.688 62.6805 185.728 63.7205 187.01 63.7205Z" fill="#5492ED"/>
<path d="M195.292 49.8331L250.034 59.0746" stroke="#202124" stroke-miterlimit="10"/>
<path d="M203.827 54.4285L259.427 63.771" stroke="#202124" stroke-miterlimit="10"/>
<path d="M193.777 56.2971L234.985 62.5086" stroke="#202124" stroke-miterlimit="10"/>
<path d="M192.06 60.8926L257.357 72.7096" stroke="#202124" stroke-miterlimit="10"/>
<path d="M192.06 63.7711L250.034 74.0731" stroke="#202124" stroke-miterlimit="10"/>
<path d="M222.31 73.8206L254.882 79.729" stroke="#202124" stroke-miterlimit="10"/>
<path d="M202.493 115.24C202.897 116.654 203.402 118.725 204.059 121.149C205.321 126.047 208.452 138.319 211.583 153.368C215.371 171.598 217.845 187.708 219.36 198.818C212.947 197.454 206.533 196.091 200.069 194.727C194.06 182.203 190.878 175.032 189.01 170.639C188.505 169.427 187.141 166.144 184.919 162.003C183.152 158.721 181.536 156.095 180.526 154.529C180.172 155.64 179.566 157.408 178.758 159.428C176.688 164.73 174.617 168.467 173.86 169.881C171.941 173.416 169.163 178.921 165.578 187.506C158.154 185.94 150.781 184.375 143.358 182.86C146.388 172.457 149.67 161.953 153.155 151.247C154.468 147.308 155.73 143.419 157.043 139.531C160.023 136.804 163.406 134.026 167.194 131.35C179.97 122.361 192.646 117.715 202.493 115.24Z" fill="white"/>
<path d="M156.993 139.278C151.943 153.722 147.802 168.518 142.954 183.062C142.853 183.314 143.257 183.416 143.308 183.163C148.156 168.619 152.246 153.873 157.347 139.379C157.397 139.127 157.044 139.026 156.993 139.278Z" fill="#202124"/>
<path d="M202.291 115.291C209.614 142.662 215.27 170.487 219.108 198.565C219.159 198.818 219.512 198.717 219.461 198.464C215.623 170.386 209.967 142.561 202.645 115.19C202.594 114.937 202.241 115.038 202.291 115.291Z" fill="#202124"/>
<path d="M173.809 148.621C181.182 153.065 184.566 161.246 187.95 168.771C191.99 177.709 196.03 186.698 200.07 195.636C200.171 195.838 200.474 195.687 200.373 195.434C196.08 185.89 191.788 176.295 187.444 166.751C184.263 159.731 180.778 152.408 173.961 148.267C173.809 148.166 173.607 148.52 173.809 148.621Z" fill="#202124"/>
<path d="M180.173 156.095C175.224 166.599 170.325 177.103 165.376 187.607C165.275 187.809 165.578 188.011 165.679 187.809C170.628 177.305 175.527 166.801 180.476 156.297C180.577 156.045 180.274 155.843 180.173 156.095Z" fill="#202124"/>
<path d="M90.838 76.406C92.05 76.0525 92.9085 76.002 97.8575 75.396C104.019 74.6385 108.968 73.881 112.2 73.3255C113.361 73.679 115.129 74.4365 116.694 76.002C119.27 78.5775 119.724 81.8095 119.977 83.6275C120.28 85.9505 120.078 87.8695 119.775 89.233C117.704 90.0915 115.432 90.8995 113.109 91.7075C111.745 92.162 107.099 93.677 100.736 95.0405C98.5645 95.495 93.1105 96.606 85.9395 97.3635C82.9095 97.6665 80.334 97.818 78.415 97.919C81.6975 82.365 86.7475 77.6685 90.838 76.406Z" fill="#040844"/>
<path d="M82.0005 97.919C89.0705 97.4645 96.09 96.404 102.958 94.788C109.574 93.2225 116.391 91.4045 122.401 88.1725C122.603 88.0715 122.401 87.718 122.199 87.8695C116.24 91.051 109.372 92.869 102.807 94.4345C95.9385 96.0505 88.9695 97.0605 81.95 97.5655C81.7985 97.5655 81.748 97.919 82.0005 97.919Z" fill="#202124"/>
<path d="M90.8886 76.5575C100.181 75.2445 109.422 73.9315 118.714 72.568C118.967 72.5175 118.866 72.164 118.613 72.2145C109.321 73.5275 100.08 74.8405 90.7876 76.204C90.5351 76.2545 90.6361 76.608 90.8886 76.5575Z" fill="#202124"/>
<path d="M109.977 73.3255C109.775 74.184 109.523 75.497 109.927 77.012C110.381 78.6785 111.391 79.739 111.896 80.244C114.573 83.1225 113.31 82.971 118.613 89.7885C119.269 90.5965 121.289 93.172 124.471 96.7575C125.531 97.919 128.915 101.656 136.187 108.575C139.318 111.554 143.459 115.392 148.458 119.786C149.216 121.806 150.024 123.876 150.832 125.947C152.397 129.936 153.963 133.875 155.579 137.713C155.831 138.218 156.286 138.925 157.094 139.531C158.508 140.642 160.174 140.743 162.901 140.743C166.487 140.743 168.305 140.743 169.719 140.591C175.375 139.986 179.667 138.42 181.788 137.562C184.01 136.653 186.838 135.491 190.07 133.168C191.939 131.855 195.373 129.33 198.302 124.735C199.514 122.866 201.079 119.887 202.039 115.847C201.281 113.423 200.171 110.241 198.655 106.605C197.443 103.676 195.272 98.4745 191.484 92.263C189.818 89.536 186.99 84.9405 182.394 79.6885C179.718 76.6585 175.779 72.265 169.769 68.225C166.638 66.104 158.912 61.0035 147.903 59.3875C142.297 58.5795 138.207 58.9835 137.247 59.0845C131.894 59.6905 128.006 61.256 125.228 62.468C122.097 63.781 117.805 65.6495 113.462 69.639C111.947 71.0025 110.735 72.366 109.977 73.3255Z" fill="#040844"/>
<path d="M129.369 175.184C128.713 175.033 127.753 174.78 126.592 174.679C124.824 174.477 123.865 174.427 122.754 174.932C122.4 175.083 120.885 175.841 120.633 177.356C120.481 178.214 120.835 178.921 120.986 179.275C118.764 179.931 117.35 180.992 116.593 181.648C115.229 182.86 114.825 183.921 114.724 184.173C114.522 184.779 114.068 185.89 114.573 186.951C114.724 187.254 115.027 187.809 116.643 188.617C118.36 189.476 119.522 190.082 121.188 190.031C123.208 190.031 124.723 189.122 125.784 188.466C127.097 187.658 126.794 187.506 128.612 186.244C130.43 184.981 130.985 184.981 132.601 183.719C133.46 183.062 134.116 182.557 134.773 181.648C135.177 181.143 135.985 180.032 136.338 178.366C136.439 177.911 136.54 177.154 136.389 176.245C136.338 176.043 136.136 174.78 135.53 174.174C134.52 173.114 131.945 173.417 129.369 175.184Z" fill="white"/>
<path d="M151.034 59.943C149.721 62.0135 148.408 64.286 147.145 66.811C144.065 72.871 142.196 78.628 141.035 83.5265C139.419 94.788 137.853 106.201 136.338 117.715C133.864 137.006 131.692 155.943 129.773 174.578C130.379 174.426 131.389 174.275 132.5 174.527C135.076 175.133 136.338 177.305 136.54 177.709C137.651 174.931 139.065 171.295 140.681 167.053C142.802 161.448 145.731 153.721 148.963 144.53C151.791 136.602 155.478 125.138 162.8 102.514C164.366 97.616 165.477 92.6165 167.143 87.7685C167.648 86.405 168.456 84.0315 168.911 80.749C169.264 77.921 169.618 75.295 168.557 72.2145C167.345 68.6795 165.022 66.609 163.659 65.3465C161.235 63.1245 158.811 62.1145 157.649 61.6095C155.074 60.4985 152.7 60.0945 151.034 59.943Z" fill="#040844"/>
<path d="M151.539 60.1955C160.174 61.1045 169.265 67.7705 169.113 77.113C169.063 81.6075 167.497 86.0515 166.235 90.344C165.023 94.5355 163.76 98.7775 162.498 102.969C157.498 119.432 151.994 135.794 146.136 151.954C142.752 161.246 139.217 170.538 135.581 179.729C135.48 179.931 135.833 180.032 135.934 179.83C143.004 162.004 149.569 144.026 155.63 125.846C158.609 116.907 161.437 107.918 164.164 98.8785C165.578 94.2325 166.992 89.5865 168.204 84.9405C169.214 81.254 170.022 77.315 169.164 73.477C167.447 65.7505 158.962 60.5995 151.539 59.842C151.337 59.7915 151.337 60.1955 151.539 60.1955Z" fill="white"/>
<path d="M135.732 179.578C133.864 183.971 128.915 185.133 125.733 188.264C125.582 188.415 125.834 188.718 125.986 188.516C129.167 185.335 134.167 184.173 136.035 179.729C136.136 179.578 135.833 179.376 135.732 179.578Z" fill="#202124"/>
<path d="M129.269 174.932C126.643 174.528 121.694 173.215 120.936 177.002C120.886 177.255 121.239 177.356 121.29 177.103C121.997 173.568 126.693 174.881 129.168 175.285C129.37 175.336 129.471 174.932 129.269 174.932Z" fill="#202124"/>
<path d="M125.026 177.305C121.037 179.376 113.967 180.588 114.27 186.446C114.27 186.698 114.674 186.698 114.674 186.446C114.371 180.739 121.34 179.679 125.229 177.659C125.431 177.558 125.228 177.204 125.026 177.305Z" fill="#202124"/>
<path d="M116.391 187.607C117.199 184.88 119.118 182.759 121.694 181.598C121.896 181.497 121.744 181.194 121.492 181.295C118.815 182.507 116.846 184.729 116.038 187.557C115.987 187.759 116.341 187.86 116.391 187.607Z" fill="#202124"/>
<path d="M118.764 188.769C120.027 186.092 122.148 184.072 124.824 182.911C125.026 182.81 124.875 182.507 124.622 182.608C121.845 183.769 119.673 185.89 118.411 188.617C118.31 188.769 118.613 188.971 118.764 188.769Z" fill="#202124"/>
<path d="M121.441 190.031C122.199 187.759 123.916 185.941 126.188 185.032C126.39 184.931 126.34 184.577 126.087 184.678C123.714 185.638 121.896 187.506 121.088 189.93C120.987 190.183 121.34 190.284 121.441 190.031Z" fill="#202124"/>
<path d="M116.997 66.306C116.593 66.003 115.936 65.5485 115.229 64.8415C114.522 64.084 113.512 63.074 112.957 61.5085C112.704 60.7005 112.099 58.832 113.058 57.014C113.109 56.8625 114.119 55.1455 116.088 54.691C116.745 54.5395 117.401 54.5395 120.381 55.5495C123.815 56.711 123.714 56.9635 126.643 57.9735C127.804 58.327 128.713 58.63 130.026 59.2865C130.935 59.7915 131.642 60.145 132.349 60.852C133.965 62.468 134.369 64.4375 134.47 64.993C134.672 66.0535 134.874 67.215 134.369 68.2755C133.005 71.053 127.501 70.6995 126.895 70.6995C123.007 70.3965 120.077 68.3765 116.997 66.306Z" fill="#202124"/>
<path d="M117.047 66.003C116.946 66.5585 116.846 67.3665 116.896 68.3765C116.896 69.4875 116.946 71.6085 118.209 73.78C118.663 74.588 119.673 76.2545 121.794 77.214C123.663 78.0725 125.329 77.8705 126.289 77.7695C128.612 77.517 130.178 76.507 130.531 76.2545C130.935 75.9515 131.642 75.497 132.299 74.689C133.359 73.376 133.662 72.063 134.117 69.9925C134.369 68.9825 134.47 68.0735 134.571 67.3665C134.066 66.508 132.652 64.4375 129.925 63.1245C126.996 61.7105 124.37 62.0135 123.865 62.1145C119.926 62.569 117.603 65.3465 117.047 66.003Z" fill="white"/>
<path d="M116.846 66.306C116.29 71.3055 118.411 77.618 124.269 78.123C129.774 78.5775 134.319 74.5375 134.369 69.134C134.369 68.8815 134.016 68.8815 133.965 69.134C133.915 74.4365 128.966 78.729 123.562 77.6685C118.361 76.6585 116.694 70.952 117.199 66.3565C117.25 66.0535 116.846 66.0535 116.846 66.306Z" fill="#202124"/>
<path d="M121.391 66.8615C120.532 68.8815 119.775 72.3155 122.047 73.7295C122.249 73.881 122.451 73.5275 122.249 73.4265C120.128 72.1135 120.987 68.831 121.744 66.9625C121.845 66.7605 121.492 66.6595 121.391 66.8615Z" fill="#202124"/>
<path d="M116.997 65.9525C114.27 64.3365 111.947 60.9025 113.058 57.6705C114.573 53.176 119.522 55.3475 122.653 56.5595C127.905 58.5795 135.127 60.145 134.42 67.3665C134.42 67.619 134.773 67.619 134.824 67.3665C135.127 64.185 133.763 61.1045 130.935 59.4885C129.117 58.428 126.996 57.822 125.027 57.0645C122.704 56.1555 120.179 54.8425 117.654 54.489C114.876 54.1355 112.654 56.0545 112.402 58.832C112.149 61.862 114.371 64.791 116.846 66.2555C117.048 66.407 117.25 66.0535 116.997 65.9525Z" fill="#202124"/>
<path d="M117.199 66.104C121.391 59.7915 130.733 61.66 134.369 67.4675C134.521 67.6695 134.824 67.4675 134.672 67.2655C130.885 61.2055 121.239 59.3875 116.846 65.902C116.745 66.104 117.098 66.306 117.199 66.104Z" fill="#202124"/>
<path d="M124.976 68.6795C125.311 68.6795 125.582 68.1821 125.582 67.5685C125.582 66.9549 125.311 66.4575 124.976 66.4575C124.641 66.4575 124.37 66.9549 124.37 67.5685C124.37 68.1821 124.641 68.6795 124.976 68.6795Z" fill="#202124"/>
<path d="M107.857 65.3465C108.059 65.498 108.261 65.7 108.463 65.902C109.675 67.114 110.331 68.4775 110.735 69.5885C110.432 70.0935 109.978 70.952 109.422 71.9115C108.715 73.0225 106.19 77.113 100.989 82.466C99.524 83.981 100.231 83.1225 95.4335 87.6675C91.141 91.758 85.889 96.8585 81.6975 97.6665C80.637 97.8685 79.526 97.8685 79.526 97.8685C78.718 97.8685 76.9 97.818 74.779 97.01C73.2135 96.404 71.85 95.8485 70.7895 94.485C69.2745 92.5155 69.3755 90.142 69.426 89.4855C69.4765 88.9805 69.628 87.2635 71.85 84.1325C73.5165 81.8095 75.4355 79.84 77.708 78.0725C80.5865 75.8 83.061 74.588 85.687 73.275C86.6465 72.77 89.5755 71.4065 96.292 69.033C99.2715 68.023 103.16 66.71 107.857 65.3465Z" fill="#040844"/>
<path d="M107.857 65.3465C108.261 65.2455 108.917 65.0435 109.725 64.8415C112.402 64.1345 112.907 64.2355 114.523 63.7305C116.24 63.175 116.088 62.9225 117.654 62.5185C118.714 62.2155 119.775 61.963 121.087 62.165C122.956 62.4175 124.925 63.6295 124.824 64.488C124.774 64.8415 124.421 65.0435 124.168 65.195C123.158 65.801 122.198 65.3465 121.087 65.3465C120.28 65.3465 119.169 65.9525 116.846 67.215C114.573 68.427 114.068 68.932 112.806 69.033C111.846 69.134 110.988 68.932 110.483 68.73C110.23 68.225 109.877 67.619 109.372 66.9625C108.816 66.2555 108.311 65.7505 107.857 65.3465Z" fill="white"/>
<path d="M107.756 65.5485C109.119 66.609 110.079 68.023 110.584 69.6895C110.634 69.942 111.038 69.841 110.937 69.5885C110.432 67.821 109.422 66.306 107.958 65.195C107.756 65.0435 107.554 65.397 107.756 65.5485Z" fill="#202124"/>
<path d="M111.089 68.932C112.957 69.4875 114.523 68.8815 116.139 67.821C117.351 67.013 118.512 66.0535 119.926 65.6495C121.34 65.296 122.956 65.397 124.37 65.296C124.622 65.296 124.622 64.892 124.37 64.892C122.602 64.993 120.683 64.8415 119.017 65.498C116.34 66.609 114.472 69.4875 111.139 68.4775C110.937 68.4775 110.836 68.831 111.089 68.932Z" fill="#202124"/>
<path d="M108.766 65.2455C113.664 64.2355 119.674 61.963 124.421 64.387C124.623 64.488 124.825 64.185 124.623 64.084C119.724 61.6095 113.664 63.882 108.665 64.9425C108.412 64.892 108.513 65.296 108.766 65.2455Z" fill="#202124"/>
<path d="M114.523 63.882C115.735 63.68 116.694 62.872 117.906 62.569C119.522 62.1145 121.138 62.165 122.754 62.6195C123.007 62.67 123.108 62.3165 122.855 62.266C121.542 61.9125 120.229 61.761 118.916 62.0135C117.3 62.266 116.038 63.276 114.472 63.579C114.169 63.579 114.27 63.9325 114.523 63.882Z" fill="#202124"/>
</svg>
